####
#
# OBJ File Generated by Meshlab
#
####
# Object arrow.obj
#
# Vertices: 20
# Faces: 18
#
####
mtllib ./arrow.obj.mtl

vn -0.660896 0.737760 0.137575
v 0.294919 0.027893 -0.382242
vn 0.156698 0.734199 -0.660605
v 0.358025 0.027893 -0.423292
vn -0.788663 0.597622 -0.144425
v 0.499104 0.027893 -0.000236
vn 0.466089 0.871522 -0.152348
v 0.773436 0.027893 -0.000236
vn -0.563621 0.824210 0.054859
v 0.294107 0.027893 0.377112
vn 0.433876 0.576672 0.692243
v 0.362433 0.027893 0.416688
vn -0.638366 0.330624 0.695109
v 0.310490 0.027893 0.418017
vn -0.097076 0.570529 0.815520
v 0.314830 0.027893 0.420531
vn -0.682196 0.570263 -0.457612
v 0.310729 0.027893 -0.420332
vn -0.367107 0.325637 -0.871317
v 0.312727 0.027893 -0.421632
vn -0.671145 -0.737760 -0.072625
v 0.294919 -0.034131 -0.382242
vn 0.340283 -0.734199 -0.587503
v 0.358025 -0.034131 -0.423292
vn -0.789624 -0.597622 0.139074
v 0.499104 -0.034131 -0.000236
vn 0.465788 -0.871522 0.153264
v 0.773436 -0.034131 -0.000236
vn -0.553400 -0.824210 -0.120113
v 0.294107 -0.034131 0.377112
vn 0.251741 -0.576672 0.777223
v 0.362433 -0.034131 0.416688
vn -0.779566 -0.330624 0.531944
v 0.310490 -0.034131 0.418017
vn -0.263017 -0.570529 0.778022
v 0.314830 -0.034131 0.420531
vn -0.574348 -0.570263 -0.587302
v 0.310729 -0.034131 -0.420332
vn -0.201442 -0.325637 -0.923787
v 0.312727 -0.034131 -0.421632
# 20 vertices, 0 vertices normals


usemtl material_0
f 2//2 1//1 3//3 4//4
f 6//6 4//4 3//3 5//5
f 7//7 8//8 6//6 5//5
f 10//10 9//9 1//1 2//2
f 12//12 14//14 13//13 11//11
f 16//16 15//15 13//13 14//14
f 17//17 15//15 16//16 18//18
f 20//20 12//12 11//11 19//19
f 11//11 13//13 3//3 1//1
f 14//14 12//12 2//2 4//4
f 13//13 15//15 5//5 3//3
f 16//16 14//14 4//4 6//6
f 17//17 18//18 8//8 7//7
f 18//18 16//16 6//6 8//8
f 15//15 17//17 7//7 5//5
f 20//20 19//19 9//9 10//10
f 19//19 11//11 1//1 9//9
f 12//12 20//20 10//10 2//2
# 18 faces, 0 coords texture

# End of File
