####
#
# OBJ File Generated by Meshlab
#
####
# Object cone.obj
#
# Vertices: 97
# Faces: 190
#
####
mtllib ./cone.obj.mtl

vn -0.628222 0.513037 0.584918
v 0.631500 0.247250 0.281930
vn -0.628127 0.389015 0.673887
v 0.631500 0.187496 0.324759
vn -0.628129 0.473741 0.617271
v 0.631500 0.228282 0.297505
vn -0.628198 0.432279 0.646918
v 0.631500 0.208335 0.311797
vn -0.628165 0.550140 0.550232
v 0.631500 0.265161 0.265158
vn -0.628207 0.344036 0.697850
v 0.631500 0.165855 0.336319
vn -0.628170 0.584979 0.513033
v 0.631500 0.281936 0.247250
vn -0.628207 0.297854 0.718776
v 0.631500 0.143503 0.346447
vn -0.628179 0.617273 0.473672
v 0.631500 0.297503 0.228282
vn -0.628104 0.250121 0.736834
v 0.631500 0.120537 0.355098
vn -0.628167 0.646942 0.432287
v 0.631500 0.311797 0.208336
vn -0.628249 0.201384 0.751497
v 0.631500 0.097054 0.362215
vn -0.628172 0.673839 0.389026
v 0.631500 0.324755 0.187497
vn -0.628078 0.151767 0.763207
v 0.631500 0.073156 0.367795
vn -0.628176 0.697833 0.344127
v 0.631500 0.336322 0.165855
vn -0.628235 0.101399 0.771387
v 0.631500 0.048945 0.371781
vn -0.628174 0.718844 0.297760
v 0.631500 0.346450 0.143503
vn -0.628214 0.051050 0.776364
v 0.631500 0.024524 0.374188
vn -0.628175 0.736777 0.250112
v 0.631500 0.355094 0.120536
vn -0.628084 0.000000 0.778145
v 0.631500 -0.000003 0.375000
vn -0.628169 0.751564 0.201381
v 0.631500 0.362218 0.097055
vn -0.628214 -0.051050 0.776364
v 0.631500 -0.024528 0.374188
vn -0.628172 0.763129 0.151775
v 0.631500 0.367789 0.073157
vn -0.628237 -0.101395 0.771387
v 0.631500 -0.048949 0.371781
vn -0.628184 0.771408 0.101564
v 0.631500 0.371786 0.048944
vn -0.628077 -0.151763 0.763208
v 0.631500 -0.073161 0.367795
vn -0.628160 0.776418 0.050888
v 0.631500 0.374193 0.024524
vn -0.628249 -0.201383 0.751498
v 0.631500 -0.097059 0.362215
vn -0.628187 0.778062 0.000001
v 0.631500 0.374994 -0.000002
vn -0.628115 -0.250086 0.736837
v 0.631500 -0.120542 0.355098
vn -0.628160 0.776418 -0.050887
v 0.631500 0.374193 -0.024528
vn -0.628196 -0.297826 0.718797
v 0.631500 -0.143514 0.346447
vn -0.628184 0.771408 -0.101564
v 0.631500 0.371786 -0.048949
vn -0.628181 -0.344123 0.697831
v 0.631500 -0.165867 0.336319
vn -0.628172 0.763129 -0.151775
v 0.631500 0.367789 -0.073161
vn -0.628172 -0.389018 0.673844
v 0.631500 -0.187496 0.324759
vn -0.628169 0.751564 -0.201381
v 0.631500 0.362218 -0.097060
vn -0.628178 -0.432248 0.646958
v 0.631500 -0.208342 0.311797
vn -0.628174 0.736778 -0.250112
v 0.631500 0.355094 -0.120541
vn -0.628143 -0.473721 0.617272
v 0.631500 -0.228287 0.297505
vn -0.628173 0.718844 -0.297761
v 0.631500 0.346450 -0.143507
vn -0.628205 -0.513048 0.584928
v 0.631500 -0.247259 0.281930
vn -0.628178 0.697833 -0.344126
v 0.631500 0.336322 -0.165860
vn -0.628163 -0.550188 0.550186
v 0.631500 -0.265167 0.265158
vn -0.628167 0.673836 -0.389038
v 0.631500 0.324755 -0.187502
vn -0.628213 -0.584903 0.513066
v 0.631500 -0.281938 0.247250
vn -0.628175 0.646937 -0.432283
v 0.631500 0.311797 -0.208339
vn -0.628128 -0.617272 0.473742
v 0.631500 -0.297514 0.228282
vn -0.628179 0.617291 -0.473649
v 0.631500 0.297503 -0.228286
vn -0.628145 -0.647056 0.432149
v 0.631500 -0.311805 0.208334
vn -0.628168 0.585000 -0.513011
v 0.631500 0.281936 -0.247256
vn -0.628245 -0.673799 0.388978
v 0.631500 -0.324753 0.187497
vn -0.628168 0.550173 -0.550195
v 0.631500 0.265161 -0.265166
vn -0.628146 -0.697810 0.344231
v 0.631500 -0.336328 0.165855
vn -0.628179 0.513004 -0.584994
v 0.631500 0.247250 -0.281940
vn -0.628141 -0.718911 0.297669
v 0.631500 -0.346456 0.143503
vn -0.628174 0.473663 -0.617285
v 0.631500 0.228282 -0.297507
vn -0.628245 -0.736723 0.250096
v 0.631500 -0.355092 0.120536
vn -0.628169 0.432275 -0.646948
v 0.631500 0.208335 -0.311801
vn -0.628107 -0.751609 0.201411
v 0.631500 -0.362223 0.097055
vn -0.628175 0.389034 -0.673832
v 0.631500 0.187496 -0.324759
vn -0.628224 -0.763092 0.151742
v 0.631500 -0.367789 0.073155
vn -0.628173 0.344138 -0.697831
v 0.631500 0.165855 -0.336327
vn -0.628164 -0.771414 0.101636
v 0.631500 -0.371790 0.048944
vn -0.628174 0.297762 -0.718843
v 0.631500 0.143503 -0.346454
vn -0.628141 -0.776438 0.050822
v 0.631500 -0.374197 0.024524
vn -0.628172 0.250107 -0.736782
v 0.631500 0.120537 -0.355099
vn -0.628231 -0.778027 0.000001
v 0.631500 -0.374994 -0.000002
vn -0.628172 0.201375 -0.751564
v 0.631500 0.097054 -0.362222
vn -0.628141 -0.776438 -0.050821
v 0.631500 -0.374197 -0.024528
vn -0.628178 0.151799 -0.763118
v 0.631500 0.073156 -0.367794
vn -0.628166 -0.771413 -0.101633
v 0.631500 -0.371790 -0.048949
vn -0.628169 0.101566 -0.771419
v 0.631500 0.048945 -0.371792
vn -0.628221 -0.763094 -0.151744
v 0.631500 -0.367789 -0.073161
vn -0.628177 0.050890 -0.776405
v 0.631500 0.024524 -0.374197
vn -0.628109 -0.751606 -0.201415
v 0.631500 -0.362223 -0.097060
vn -0.628170 -0.000001 -0.778076
v 0.631500 -0.000003 -0.375000
vn -0.628245 -0.736722 -0.250097
v 0.631500 -0.355092 -0.120541
vn -0.628176 -0.050889 -0.776405
v 0.631500 -0.024528 -0.374197
vn -0.628141 -0.718911 -0.297669
v 0.631500 -0.346456 -0.143507
vn -0.628172 -0.101562 -0.771418
v 0.631500 -0.048949 -0.371792
vn -0.628142 -0.697808 -0.344241
v 0.631500 -0.336328 -0.165860
vn -0.628178 -0.151795 -0.763119
v 0.631500 -0.073161 -0.367794
vn -0.628252 -0.673795 -0.388974
v 0.631500 -0.324753 -0.187500
vn -0.628172 -0.201374 -0.751564
v 0.631500 -0.097059 -0.362222
vn -0.628140 -0.647066 -0.432142
v 0.631500 -0.311805 -0.208339
vn -0.628182 -0.250073 -0.736784
v 0.631500 -0.120542 -0.355099
vn -0.628128 -0.617272 -0.473742
v 0.631500 -0.297514 -0.228286
vn -0.628162 -0.297735 -0.718865
v 0.631500 -0.143514 -0.346454
vn -0.628223 -0.584918 -0.513036
v 0.631500 -0.281938 -0.247255
vn -0.628147 -0.344225 -0.697812
v 0.631500 -0.165867 -0.336327
vn -0.628163 -0.550233 -0.550141
v 0.631500 -0.265167 -0.265166
vn -0.628222 -0.389036 -0.673786
v 0.631500 -0.187496 -0.324759
vn -0.628159 -0.513016 -0.585005
v 0.631500 -0.247259 -0.281940
vn -0.628149 -0.432244 -0.646988
v 0.631500 -0.208342 -0.311801
vn -0.628188 -0.473644 -0.617285
v 0.631500 -0.228287 -0.297507
vn 1.000000 -0.000001 0.000012
v 1.631492 -0.000003 -0.000002
# 97 vertices, 0 vertices normals


usemtl material_0
f 1//1 2//2 3//3
f 3//3 97//97 1//1
f 1//1 97//97 5//5
f 5//5 97//97 7//7
f 5//5 7//7 6//6
f 2//2 5//5 6//6
f 6//6 97//97 2//2
f 2//2 97//97 4//4
f 8//8 97//97 6//6
f 10//10 97//97 8//8
f 8//8 9//9 10//10
f 9//9 11//11 10//10
f 10//10 11//11 12//12
f 11//11 13//13 12//12
f 12//12 13//13 14//14
f 14//14 97//97 12//12
f 16//16 97//97 14//14
f 14//14 15//15 16//16
f 15//15 17//17 16//16
f 16//16 17//17 18//18
f 17//17 19//19 18//18
f 18//18 19//19 20//20
f 20//20 97//97 18//18
f 22//22 97//97 20//20
f 20//20 21//21 22//22
f 21//21 23//23 22//22
f 22//22 23//23 24//24
f 23//23 25//25 24//24
f 24//24 25//25 26//26
f 26//26 97//97 24//24
f 28//28 97//97 26//26
f 26//26 27//27 28//28
f 27//27 29//29 28//28
f 28//28 29//29 30//30
f 29//29 31//31 30//30
f 30//30 31//31 32//32
f 32//32 97//97 30//30
f 34//34 97//97 32//32
f 32//32 33//33 34//34
f 33//33 35//35 34//34
f 34//34 35//35 36//36
f 35//35 37//37 36//36
f 36//36 37//37 38//38
f 38//38 97//97 36//36
f 40//40 97//97 38//38
f 38//38 39//39 40//40
f 39//39 41//41 40//40
f 40//40 41//41 42//42
f 41//41 43//43 42//42
f 42//42 43//43 44//44
f 44//44 97//97 42//42
f 46//46 97//97 44//44
f 44//44 45//45 46//46
f 45//45 47//47 46//46
f 46//46 47//47 48//48
f 47//47 49//49 48//48
f 48//48 49//49 50//50
f 50//50 97//97 48//48
f 52//52 97//97 50//50
f 50//50 51//51 52//52
f 51//51 53//53 52//52
f 52//52 53//53 54//54
f 53//53 55//55 54//54
f 54//54 55//55 56//56
f 56//56 97//97 54//54
f 58//58 97//97 56//56
f 56//56 57//57 58//58
f 57//57 59//59 58//58
f 58//58 59//59 60//60
f 59//59 61//61 60//60
f 60//60 61//61 62//62
f 62//62 97//97 60//60
f 64//64 97//97 62//62
f 62//62 63//63 64//64
f 63//63 65//65 64//64
f 64//64 65//65 66//66
f 65//65 67//67 66//66
f 66//66 67//67 68//68
f 68//68 97//97 66//66
f 70//70 97//97 68//68
f 68//68 69//69 70//70
f 69//69 71//71 70//70
f 70//70 71//71 72//72
f 71//71 73//73 72//72
f 72//72 73//73 74//74
f 74//74 97//97 72//72
f 76//76 97//97 74//74
f 74//74 75//75 76//76
f 75//75 77//77 76//76
f 76//76 77//77 78//78
f 77//77 79//79 78//78
f 78//78 79//79 80//80
f 80//80 97//97 78//78
f 82//82 97//97 80//80
f 80//80 81//81 82//82
f 81//81 83//83 82//82
f 82//82 83//83 84//84
f 83//83 85//85 84//84
f 84//84 85//85 86//86
f 86//86 97//97 84//84
f 88//88 97//97 86//86
f 86//86 87//87 88//88
f 87//87 89//89 88//88
f 88//88 89//89 90//90
f 89//89 91//91 90//90
f 90//90 91//91 92//92
f 92//92 97//97 90//90
f 94//94 97//97 92//92
f 92//92 93//93 94//94
f 93//93 95//95 94//94
f 94//94 95//95 96//96
f 95//95 97//97 96//96
f 93//93 97//97 95//95
f 91//91 97//97 93//93
f 96//96 97//97 94//94
f 91//91 93//93 92//92
f 89//89 97//97 91//91
f 87//87 97//97 89//89
f 85//85 97//97 87//87
f 90//90 97//97 88//88
f 85//85 87//87 86//86
f 83//83 97//97 85//85
f 81//81 97//97 83//83
f 79//79 97//97 81//81
f 84//84 97//97 82//82
f 79//79 81//81 80//80
f 77//77 97//97 79//79
f 75//75 97//97 77//77
f 73//73 97//97 75//75
f 78//78 97//97 76//76
f 73//73 75//75 74//74
f 71//71 97//97 73//73
f 69//69 97//97 71//71
f 67//67 97//97 69//69
f 72//72 97//97 70//70
f 67//67 69//69 68//68
f 65//65 97//97 67//67
f 63//63 97//97 65//65
f 61//61 97//97 63//63
f 66//66 97//97 64//64
f 61//61 63//63 62//62
f 59//59 97//97 61//61
f 57//57 97//97 59//59
f 55//55 97//97 57//57
f 60//60 97//97 58//58
f 55//55 57//57 56//56
f 53//53 97//97 55//55
f 51//51 97//97 53//53
f 49//49 97//97 51//51
f 54//54 97//97 52//52
f 49//49 51//51 50//50
f 47//47 97//97 49//49
f 45//45 97//97 47//47
f 43//43 97//97 45//45
f 48//48 97//97 46//46
f 43//43 45//45 44//44
f 41//41 97//97 43//43
f 39//39 97//97 41//41
f 37//37 97//97 39//39
f 42//42 97//97 40//40
f 37//37 39//39 38//38
f 35//35 97//97 37//37
f 33//33 97//97 35//35
f 31//31 97//97 33//33
f 36//36 97//97 34//34
f 31//31 33//33 32//32
f 29//29 97//97 31//31
f 27//27 97//97 29//29
f 25//25 97//97 27//27
f 30//30 97//97 28//28
f 25//25 27//27 26//26
f 23//23 97//97 25//25
f 21//21 97//97 23//23
f 19//19 97//97 21//21
f 24//24 97//97 22//22
f 19//19 21//21 20//20
f 17//17 97//97 19//19
f 15//15 97//97 17//17
f 13//13 97//97 15//15
f 18//18 97//97 16//16
f 13//13 15//15 14//14
f 11//11 97//97 13//13
f 9//9 97//97 11//11
f 7//7 9//9 8//8
f 12//12 97//97 10//10
f 6//6 7//7 8//8
f 7//7 97//97 9//9
f 4//4 97//97 3//3
f 4//4 3//3 2//2
f 1//1 5//5 2//2
# 190 faces, 0 coords texture

# End of File
